<svg width="43" height="53" viewBox="0 0 43 53" fill="none" xmlns="http://www.w3.org/2000/svg">
<path d="M23.7346 27.7403L22.4707 34.8176L29.3141 35.7813L27.995 44.3456L13.4577 54.963L-0.706427 44.0367L-3.59021 15.6388L11.5559 9.34779L10.3226 46.5388H17.6121L18.8463 9.3192L36.5936 16.9999L39.718 10.4459L15.5894 0L-11.3916 11.2065L-7.6664 47.9057L13.1475 63.9648L34.7428 48.1945L36.5 36.7935L40.2207 37.3168L41.4876 30.2395L23.7346 27.7403Z" fill="url(#paint0_linear_13_433)"/>
<path d="M23.7344 27.7404L22.4675 34.8177L29.3138 35.7813L27.9946 44.3485L13.4545 54.9631L-0.709612 44.0368C-0.709612 44.0368 -3.59057 15.6417 -3.59048 15.6388C-3.6235 15.3157 -3.06528 14.6609 -2.87907 14.4092C-2.53696 13.9403 -2.16343 13.4913 -1.80419 13.0338C0.68975 9.83972 3.28795 6.49121 6.51508 3.96053C6.70672 3.80897 6.90672 3.66886 7.1039 3.52588L-11.3919 11.2066L-7.66666 47.9057L13.1472 63.9649L34.7454 48.1946L36.5027 36.7936L40.2233 37.3169L41.4902 30.2396L23.7373 27.7404H23.7344Z" fill="url(#paint1_linear_13_433)"/>
<path d="M23.7347 27.7402L22.4679 34.8176L29.3142 35.7812L27.995 44.3484C25.5687 46.1184 23.1423 47.8913 20.716 49.6614C19.1921 50.7737 17.668 51.8889 16.1412 53.0013C15.3344 53.5904 14.189 54.1909 13.5432 54.9372C14.567 55.2775 16.1617 55.0201 17.254 54.9658C18.5596 54.9 19.8615 54.7656 21.1569 54.5655C23.9998 54.128 27.3234 53.6104 29.696 51.8775C31.2797 50.7223 32.8633 49.567 34.4442 48.4089C34.5428 48.3374 34.6414 48.2659 34.74 48.1944L36.4972 36.7935L40.2179 37.3168L41.4848 30.2395L23.7318 27.7402H23.7347Z" fill="url(#paint2_linear_13_433)"/>
<defs>
<linearGradient id="paint0_linear_13_433" x1="15.9264" y1="-5.76767" x2="15.9264" y2="53.9364" gradientUnits="userSpaceOnUse">
<stop stop-color="#2F0072"/>
<stop offset="0.32" stop-color="#350089"/>
<stop offset="0.56" stop-color="#360496"/>
<stop offset="1" stop-color="#5503D6"/>
</linearGradient>
<linearGradient id="paint1_linear_13_433" x1="26.6684" y1="66.0523" x2="-1.47283" y2="-8.97408" gradientUnits="userSpaceOnUse">
<stop stop-color="#2F0072"/>
<stop offset="0.32" stop-color="#350089"/>
<stop offset="0.55" stop-color="#360496"/>
<stop offset="0.78" stop-color="#5503D6"/>
</linearGradient>
<linearGradient id="paint2_linear_13_433" x1="46.9803" y1="21.1176" x2="10.8625" y2="56.7451" gradientUnits="userSpaceOnUse">
<stop stop-color="#2F0072"/>
<stop offset="0.32" stop-color="#350089"/>
<stop offset="0.52" stop-color="#360496"/>
<stop offset="0.72" stop-color="#5503D6"/>
</linearGradient>
</defs>
</svg>
