<svg width="192" height="40" viewBox="0 0 192 40" fill="none" xmlns="http://www.w3.org/2000/svg">
<g clip-path="url(#clip0_66_445)">
<path d="M41.4757 13.3166C41.574 13.077 41.7099 12.8642 41.8851 12.6783C42.0585 12.4923 42.2641 12.3457 42.4983 12.2366C42.7325 12.1275 42.9811 12.0739 43.2421 12.0739H56.1877V15.3927H50.6633V30.7443H46.8374V15.3945H41.3291V14.0874C41.3291 13.8155 41.3774 13.5581 41.4757 13.3184V13.3166Z" fill="#2F0072"/>
<path d="M67.5315 21.6479C67.4118 21.1525 67.2258 20.7269 66.9755 20.3729C66.7252 20.0188 66.4124 19.747 66.0351 19.5557C65.6597 19.3643 65.2092 19.2696 64.6871 19.2696C64.1651 19.2696 63.6734 19.3751 63.2819 19.5879C62.8903 19.8007 62.5685 20.0886 62.3182 20.4551C62.0679 20.8199 61.882 21.2473 61.7622 21.7391C61.6424 22.229 61.5817 22.753 61.5817 23.3091V30.748H57.9363V12.0757H59.767C60.9774 12.0757 61.5817 12.6908 61.5817 13.9229V18.2557C63.4446 16.108 65.733 15.5144 68.4469 16.4728C70.485 17.2024 71.4433 19.148 71.3235 22.3095V30.7462H67.7103V23.3073C67.7103 22.6975 67.6495 22.1432 67.5298 21.6479H67.5315Z" fill="#350089"/>
<path d="M85.415 24.9577C85.415 27.454 84.7768 29.0992 83.5021 29.8949C82.1826 30.637 80.7506 31.0072 79.2023 31.0072C78.4497 31.0072 77.7363 30.907 77.0605 30.705C76.3847 30.5029 75.7304 30.1953 75.0993 29.7805C73.8353 28.9955 73.2024 27.3879 73.2024 24.9577V16.2278H76.8478V25.6945C76.8478 27.2967 77.6702 28.0978 79.3168 28.0978C80.9633 28.0978 81.8018 27.2967 81.8018 25.6945V18.0428C81.7697 16.8322 82.3525 16.2278 83.5503 16.2278H85.4132V24.9577H85.415Z" fill="#350287"/>
<path d="M87.0171 23.2572C87.1261 18.5703 89.6166 16.2278 94.4884 16.2278H95.0122V20.0044H93.7697C91.7316 20.0044 90.7125 21.0666 90.7125 23.1928V30.7461H87.0189V23.2572H87.0171Z" fill="#360496"/>
<path d="M102.66 18.9905C101.396 18.9905 100.667 19.3285 100.47 20.0044H96.8249C97.2611 17.3347 99.1509 15.9989 102.498 15.9989C106.486 15.9989 108.53 17.3347 108.628 20.0044V24.9577C108.628 25.9609 108.482 26.8282 108.187 27.5578C107.892 28.2873 107.473 28.8989 106.928 29.3889C106.383 29.8788 105.716 30.2561 104.926 30.5172C104.135 30.7783 103.25 30.9428 102.269 31.0072C101.396 31.0841 100.601 31.0394 99.8821 30.8766C99.1634 30.7139 98.5448 30.4385 98.0263 30.0505C97.5078 29.6642 97.1056 29.1707 96.816 28.5717C96.5263 27.9726 96.3833 27.2699 96.3833 26.4634C96.394 25.5907 96.5567 24.8683 96.8732 24.2961C97.1896 23.7239 97.6223 23.2572 98.1729 22.8977C98.7236 22.5383 99.3797 22.2683 100.143 22.0895C100.907 21.9089 101.745 21.7765 102.66 21.6889C104.23 21.4922 105.015 21.0076 105.015 20.2333C104.949 19.4054 104.166 18.9905 102.66 18.9905ZM101.811 28.0477C102.836 28.0477 103.637 27.7616 104.214 27.1894C104.791 26.6172 105.081 25.8196 105.081 24.795V23.4378C104.656 23.6237 104.198 23.7865 103.708 23.9277C103.218 24.069 102.705 24.1995 102.172 24.3193C100.701 24.6037 99.9661 25.2778 99.9661 26.3471C100.064 27.4809 100.679 28.0477 101.813 28.0477H101.811Z" fill="#3504AD"/>
<path d="M112.892 33.33C114.909 33.33 115.622 32.359 115.034 30.4189L110.098 16.2278H114.233L117.126 26.2989L119.643 17.5189C119.872 16.6587 120.449 16.2278 121.376 16.2278H123.925L118.188 33.2156C117.97 33.8146 117.741 34.3189 117.501 34.7284C117.262 35.1379 116.965 35.4687 116.611 35.7262C116.257 35.9819 115.824 36.1643 115.311 36.2734C114.798 36.3825 114.167 36.4361 113.414 36.4361C112.499 36.4361 111.986 36.3986 111.879 36.3217V33.33H112.892Z" fill="#4404BF"/>
<path d="M131.593 18.9905C130.329 18.9905 129.6 19.3285 129.403 20.0044H125.758C126.194 17.3347 128.083 15.9989 131.43 15.9989C135.419 15.9989 137.462 17.3347 137.561 20.0044V24.9577C137.561 25.9609 137.414 26.8282 137.119 27.5578C136.824 28.2873 136.406 28.8989 135.861 29.3889C135.315 29.8788 134.648 30.2561 133.858 30.5172C133.068 30.7783 132.183 30.9428 131.201 31.0072C130.329 31.0841 129.533 31.0394 128.815 30.8766C128.096 30.7139 127.477 30.4385 126.959 30.0505C126.44 29.6642 126.038 29.1707 125.749 28.5717C125.459 27.9726 125.316 27.2699 125.316 26.4634C125.327 25.5907 125.489 24.8683 125.806 24.2961C126.122 23.7239 126.555 23.2572 127.106 22.8977C127.656 22.5383 128.312 22.2683 129.076 22.0895C129.839 21.9107 130.678 21.7765 131.593 21.6889C133.163 21.4922 133.948 21.0076 133.948 20.2333C133.881 19.4054 133.098 18.9905 131.593 18.9905ZM130.744 28.0477C131.768 28.0477 132.569 27.7616 133.147 27.1894C133.724 26.6172 134.014 25.8196 134.014 24.795V23.4378C133.588 23.6237 133.13 23.7865 132.641 23.9277C132.151 24.069 131.638 24.1995 131.105 24.3193C129.634 24.6037 128.899 25.2778 128.899 26.3471C128.997 27.4809 129.612 28.0477 130.746 28.0477H130.744Z" fill="#5503D6"/>
<path d="M139.128 21.4099C139.107 20.0259 139.289 18.7366 139.676 17.5439C140.062 16.3512 140.632 15.3158 141.383 14.4378C142.136 13.5598 143.056 12.8839 144.145 12.41C145.234 11.9361 146.466 11.7269 147.839 11.7805C148.928 11.7805 149.941 11.9165 150.88 12.19C151.817 12.4618 152.678 12.8767 153.463 13.4328C154.902 14.5773 155.691 16.201 155.834 18.3057H153.463C152.798 18.3057 152.242 17.9891 151.795 17.3579C151.053 15.854 149.773 15.1012 147.953 15.1012C144.705 15.1012 143.076 17.1398 143.065 21.2168C143.044 23.2768 143.451 24.8522 144.292 25.9412C145.13 27.032 146.41 27.6364 148.134 27.7562C148.788 27.7562 149.371 27.6561 149.882 27.454C150.394 27.252 150.839 26.9712 151.214 26.6118C151.59 26.2524 151.897 25.8303 152.138 25.344C152.378 24.8594 152.548 24.339 152.644 23.7829H150.388C150.127 23.7829 149.879 23.731 149.644 23.6273C149.41 23.5236 149.205 23.3841 149.031 23.2107C148.856 23.0372 148.72 22.8316 148.622 22.5973C148.524 22.3631 148.475 22.1145 148.475 21.8534V20.6607H156.077V30.7479H155.113C154.885 30.7479 154.665 30.7121 154.452 30.6424C154.239 30.5708 154.046 30.4707 153.871 30.3402C153.696 30.2096 153.554 30.0576 153.445 29.8824C153.336 29.7089 153.27 29.5122 153.249 29.2941L153.086 28.3946C152.759 28.8202 152.421 29.1957 152.072 29.523C151.724 29.8502 151.339 30.122 150.919 30.3402C150.499 30.5583 150.031 30.7246 149.514 30.8391C148.996 30.9535 148.4 31.0107 147.724 31.0107C146.383 31.0107 145.182 30.7675 144.12 30.2829C143.058 29.7983 142.155 29.1242 141.415 28.2641C140.673 27.404 140.108 26.3865 139.715 25.2152C139.323 24.0439 139.127 22.7761 139.127 21.4135L139.128 21.4099Z" fill="#2F0072"/>
<path d="M163.845 18.9905C162.581 18.9905 161.852 19.3285 161.655 20.0044H158.01C158.446 17.3347 160.336 15.9989 163.682 15.9989C167.671 15.9989 169.715 17.3347 169.813 20.0044V24.9577C169.813 25.9609 169.666 26.8282 169.371 27.5578C169.076 28.2873 168.658 28.8989 168.113 29.3889C167.567 29.8788 166.901 30.2561 166.11 30.5172C165.32 30.7783 164.435 30.9428 163.454 31.0072C162.581 31.0841 161.786 31.0394 161.067 30.8766C160.348 30.7139 159.73 30.4385 159.211 30.0505C158.693 29.6642 158.29 29.1707 158.001 28.5717C157.711 27.9726 157.568 27.2699 157.568 26.4634C157.579 25.5907 157.742 24.8683 158.058 24.2961C158.374 23.7239 158.807 23.2572 159.358 22.8977C159.908 22.5383 160.565 22.2683 161.328 22.0895C162.091 21.9107 162.93 21.7765 163.845 21.6889C165.415 21.4922 166.2 21.0076 166.2 20.2333C166.134 19.4054 165.351 18.9905 163.845 18.9905ZM162.996 28.0477C164.02 28.0477 164.821 27.7616 165.399 27.1894C165.976 26.6172 166.266 25.8196 166.266 24.795V23.4378C165.84 23.6237 165.383 23.7865 164.893 23.9277C164.403 24.069 163.89 24.1995 163.357 24.3193C161.886 24.6037 161.151 25.2778 161.151 26.3471C161.249 27.4809 161.864 28.0477 162.998 28.0477H162.996Z" fill="#2F0072"/>
<path d="M177.273 17.7405C177.181 17.9641 177.054 18.1554 176.889 18.3128C176.726 18.4701 176.532 18.5971 176.308 18.6883C176.085 18.7813 175.847 18.8278 175.597 18.8278H175.205V26.871C175.205 27.4915 175.564 27.8027 176.283 27.8027H177.411V30.5815C176.812 30.637 176.194 30.6638 175.555 30.6638C174.917 30.6638 174.25 30.6316 173.553 30.5654C172.191 30.4134 171.526 29.5408 171.56 27.9493V12.0756H173.456C173.696 12.0756 173.923 12.1274 174.134 12.2311C174.347 12.3348 174.531 12.4708 174.69 12.6406C174.847 12.8105 174.973 13.0054 175.066 13.2289C175.158 13.4525 175.205 13.6849 175.205 13.9245V16.2295H177.411V17.0145C177.411 17.2756 177.365 17.5188 177.272 17.7423L177.273 17.7405Z" fill="#2F0072"/>
<path d="M191.764 26.2989C191.372 27.8349 190.661 29.0187 189.631 29.8466C188.601 30.6746 187.198 31.0894 185.422 31.0894C181.03 30.9267 178.834 28.375 178.834 23.4378C178.834 18.5006 181.046 16.0311 185.471 15.9989C190.08 15.9989 192.248 18.8385 191.977 24.5178H182.594C182.725 26.7531 183.683 27.8689 185.471 27.8689C186.32 27.8689 187.11 27.5202 187.841 26.8228C188.158 26.4741 188.565 26.2989 189.068 26.2989H191.766H191.764ZM185.421 18.9905C183.862 18.9905 182.936 19.9669 182.642 21.9178H188.118C187.89 19.9669 186.99 18.9905 185.421 18.9905Z" fill="#2F0072"/>
<path d="M21.8741 17.3472L21.243 21.773L25.4586 22.3756L24.824 27.7312L16.1262 34.3708L7.21924 27.5381L4.87361 9.7796L14.0326 5.84559V29.1028H18.5022V5.82771L29.5403 10.6308L31.3227 6.53225L16.3157 0L0 7.00791L3.03037 29.9575L16.119 40L29.0397 30.1381L29.8853 23.0086L32.1773 23.3359L32.8102 18.9101L21.8741 17.3472Z" fill="url(#paint0_linear_66_445)"/>
<path d="M21.8741 17.3472L21.2412 21.773L25.4586 22.3756L24.824 27.733L16.1244 34.3708L7.21745 27.5381C7.21745 27.5381 4.87361 9.78139 4.87361 9.7796C4.8468 9.57754 5.17576 9.16804 5.28481 9.01068C5.48505 8.71742 5.70495 8.43667 5.91592 8.15056C7.38015 6.15316 8.90516 4.05919 10.8324 2.47664C10.9469 2.38186 11.0666 2.29424 11.1846 2.20483L0 7.00791L3.03037 29.9575L16.119 40L29.0414 30.1381L29.8871 23.0086L32.1791 23.3359L32.812 18.9101L21.8758 17.3472H21.8741Z" fill="url(#paint1_linear_66_445)"/>
<path d="M21.8742 17.3473L21.2413 21.7731L25.4588 22.3757L24.8242 27.7331C23.3724 28.84 21.9207 29.9487 20.469 31.0555C19.5572 31.7512 18.6454 32.4485 17.7318 33.1442C17.2491 33.5125 16.559 33.888 16.1782 34.3548C16.8129 34.5675 17.7855 34.4066 18.4541 34.3726C19.2533 34.3315 20.0489 34.2475 20.8391 34.1223C22.5733 33.8487 24.6007 33.525 26.0202 32.4414C26.9678 31.719 27.9153 30.9965 28.8611 30.2723C28.9201 30.2276 28.9791 30.1829 29.0381 30.1382L29.8837 23.0087L32.1757 23.3359L32.8086 18.9102L21.8724 17.3473H21.8742Z" fill="url(#paint2_linear_66_445)"/>
</g>
<defs>
<linearGradient id="paint0_linear_66_445" x1="16.4051" y1="-3.60678" x2="16.4051" y2="33.7288" gradientUnits="userSpaceOnUse">
<stop stop-color="#2F0072"/>
<stop offset="0.32" stop-color="#350089"/>
<stop offset="0.56" stop-color="#360496"/>
<stop offset="1" stop-color="#5503D6"/>
</linearGradient>
<linearGradient id="paint1_linear_66_445" x1="24.4521" y1="41.3054" x2="6.1991" y2="-5.81627" gradientUnits="userSpaceOnUse">
<stop stop-color="#2F0072"/>
<stop offset="0.32" stop-color="#350089"/>
<stop offset="0.55" stop-color="#360496"/>
<stop offset="0.78" stop-color="#5503D6"/>
</linearGradient>
<linearGradient id="paint2_linear_66_445" x1="35.9927" y1="13.2058" x2="14.1392" y2="35.0531" gradientUnits="userSpaceOnUse">
<stop stop-color="#2F0072"/>
<stop offset="0.32" stop-color="#350089"/>
<stop offset="0.52" stop-color="#360496"/>
<stop offset="0.72" stop-color="#5503D6"/>
</linearGradient>
<clipPath id="clip0_66_445">
<rect width="192" height="40" fill="white"/>
</clipPath>
</defs>
</svg>
